<svg xmlns="http://www.w3.org/2000/svg" viewBox="0 0 72 44"><g id="Calque_2" data-name="Calque 2"><g id="Calque_1-2" data-name="Calque 1"><path d="M36,0A41.24,41.24,0,0,0,24.09,1.53a13.59,13.59,0,0,0-4,1.91A4.52,4.52,0,0,0,18,7v3H11.19A7.45,7.45,0,0,0,4,15.47l-4,15A2.33,2.33,0,0,0,0,31v8a5.18,5.18,0,0,0,5.19,5H66.81A5.18,5.18,0,0,0,72,39V31a2.33,2.33,0,0,0-.06-.53l-4-15A7.45,7.45,0,0,0,60.81,10H54V7a4.52,4.52,0,0,0-2.06-3.56,13.59,13.59,0,0,0-4-1.91A41.24,41.24,0,0,0,36,0Zm0,4A38.39,38.39,0,0,1,46.72,5.34a11.1,11.1,0,0,1,2.53,1.1,11.68,11.68,0,0,1-3.19,1.37A39.54,39.54,0,0,1,36,9,39.54,39.54,0,0,1,25.94,7.81a11.68,11.68,0,0,1-3.19-1.37,11.31,11.31,0,0,1,2.53-1.1A38.39,38.39,0,0,1,36,4ZM22,10.75a23.19,23.19,0,0,0,2.88.94A42.94,42.94,0,0,0,36,13a43.08,43.08,0,0,0,11.13-1.31A23.58,23.58,0,0,0,50,10.75V20.94a1.78,1.78,0,0,1-.44.4,10,10,0,0,1-2.84,1.28A37.85,37.85,0,0,1,36,24a37.85,37.85,0,0,1-10.72-1.38,10,10,0,0,1-2.84-1.28,1.78,1.78,0,0,1-.44-.4ZM11.19,14H18v7a4.48,4.48,0,0,0,2.06,3.53,13.59,13.59,0,0,0,4,1.91A41.15,41.15,0,0,0,36,28a41.15,41.15,0,0,0,11.91-1.56,13.59,13.59,0,0,0,4-1.91A4.48,4.48,0,0,0,54,21V14h6.81a4,4,0,0,1,3.32,2.5h0L68,31.25l0,.09c-.11.42-.28.66-1.16.66H5.19c-.88,0-1.05-.24-1.16-.66l0-.09L7.91,16.5h0A4,4,0,0,1,11.19,14ZM4,35.88A5.86,5.86,0,0,0,5.19,36H66.81A5.86,5.86,0,0,0,68,35.88V39c0,.73-.16,1-1.19,1H5.19C4.16,40,4,39.73,4,39Z"/></g></g></svg>