<svg xmlns="http://www.w3.org/2000/svg" viewBox="0 0 72 56.04"><g id="Calque_2" data-name="Calque 2"><g id="Calque_1-2" data-name="Calque 1"><path d="M35.78,0A2,2,0,0,0,34,2V6a2,2,0,1,0,4,.06V2a2,2,0,0,0-2-2Zm-12,2A2,2,0,0,0,22,4.21a2.1,2.1,0,0,0,.34.93l2,3a2,2,0,0,0,3.5-1.95,2.53,2.53,0,0,0-.18-.27l-2-3A2,2,0,0,0,23.78,2Zm24,0a2,2,0,0,0-1.41.91l-2,3a2,2,0,0,0,3.13,2.49l.19-.27,2-3a2,2,0,0,0-.5-2.79A2.06,2.06,0,0,0,47.75,2ZM36,12a41.24,41.24,0,0,0-11.91,1.53,13.59,13.59,0,0,0-4,1.91A4.54,4.54,0,0,0,18,19v3H11.19A7.46,7.46,0,0,0,4,27.51l-4,15A2.39,2.39,0,0,0,0,43v8a5.18,5.18,0,0,0,5.19,5H66.81A5.18,5.18,0,0,0,72,51V43a2.39,2.39,0,0,0-.06-.53l-4-15A7.46,7.46,0,0,0,60.81,22H54V19a4.54,4.54,0,0,0-2.06-3.56,13.59,13.59,0,0,0-4-1.91A41.24,41.24,0,0,0,36,12Zm0,4a38,38,0,0,1,10.72,1.35,11.62,11.62,0,0,1,2.53,1.09,11.64,11.64,0,0,1-3.19,1.38A39.59,39.59,0,0,1,36,21a39.59,39.59,0,0,1-10.06-1.18,11.64,11.64,0,0,1-3.19-1.38,11.84,11.84,0,0,1,2.53-1.09A38,38,0,0,1,36,16ZM22,22.79a23.19,23.19,0,0,0,2.88.94A42.94,42.94,0,0,0,36,25a43.08,43.08,0,0,0,11.13-1.31A23.58,23.58,0,0,0,50,22.79V33a1.87,1.87,0,0,1-.44.41,10.29,10.29,0,0,1-2.84,1.28A37.89,37.89,0,0,1,36,36a37.89,37.89,0,0,1-10.72-1.37,10.29,10.29,0,0,1-2.84-1.28A1.87,1.87,0,0,1,22,33ZM11.19,26H18v7a4.47,4.47,0,0,0,2.06,3.53,13.34,13.34,0,0,0,4,1.91A41.15,41.15,0,0,0,36,40a41.15,41.15,0,0,0,11.91-1.56,13.34,13.34,0,0,0,4-1.91A4.47,4.47,0,0,0,54,33V26h6.81a4,4,0,0,1,3.32,2.5h0L68,43.29l0,.1c-.11.42-.28.65-1.16.65H5.19c-.88,0-1.05-.23-1.16-.65l0-.1L7.91,28.54h0A4,4,0,0,1,11.19,26ZM4,47.92A5.86,5.86,0,0,0,5.19,48H66.81A5.86,5.86,0,0,0,68,47.92V51c0,.73-.16,1-1.19,1H5.19C4.16,52,4,51.77,4,51Z"/></g></g></svg>